HIERARCHY
ROOT Hips
{
	OFFSET 0.00000 0.00000 0.00000
	CHANNELS 6 Xposition Yposition Zposition Zrotation Yrotation Xrotation 
	JOINT LHipJoint
	{
		OFFSET 0 0 0
		CHANNELS 3 Zrotation Yrotation Xrotation
		JOINT LeftHip
		{
			OFFSET 1.85742 -1.74412 1.01653
			CHANNELS 3 Zrotation Yrotation Xrotation
			JOINT LeftKnee
			{
				OFFSET 2.54803 -7.00067 0.00000
				CHANNELS 3 Zrotation Yrotation Xrotation
				JOINT LeftAnkle
				{
					OFFSET 2.51202 -6.90173 0.00000
					CHANNELS 3 Zrotation Yrotation Xrotation
					JOINT LeftToe
					{
						OFFSET 0.17547 -0.48209 1.64281
						CHANNELS 3 Zrotation Yrotation Xrotation
						End Site
						{
							OFFSET 0.00000 -0.00000 0.86587
						}
					}
				}
			}
		}
	}
	JOINT RHipJoint
	{
		OFFSET 0 0 0
		CHANNELS 3 Zrotation Yrotation Xrotation
		JOINT RightHip
		{
			OFFSET -1.95533 -1.74413 1.01654
			CHANNELS 3 Zrotation Yrotation Xrotation
			JOINT RightKnee
			{
				OFFSET -2.49465 -6.85400 0.00000
				CHANNELS 3 Zrotation Yrotation Xrotation
				JOINT RightAnkle
				{
					OFFSET -2.54783 -7.00010 0.00000
					CHANNELS 3 Zrotation Yrotation Xrotation
					JOINT RightToe
					{
						OFFSET -0.18513 -0.50864 1.69288
						CHANNELS 3 Zrotation Yrotation Xrotation
						End Site
						{
							OFFSET -0.00000 -0.00000 0.89242
						}
					}
				}
			}
		}
	}
	JOINT lowerback
	{
		OFFSET 0 0 0
		CHANNELS 3 Zrotation Yrotation Xrotation
		JOINT Chest
		{
			OFFSET 0.02173 2.16290 -0.15998
			CHANNELS 3 Zrotation Yrotation Xrotation
			JOINT Chest2
			{
				OFFSET 0.00940 2.17323 -0.00467
				CHANNELS 3 Zrotation Yrotation Xrotation
				JOINT lowerneck
				{
					OFFSET 0 0 0
					CHANNELS 3 Zrotation Yrotation Xrotation
					JOINT Neck
					{
						OFFSET 0.01475 1.85823 0.31113
						CHANNELS 3 Zrotation Yrotation Xrotation
						JOINT Head
						{
							OFFSET 0.01902 1.88783 -0.37187
							CHANNELS 3 Zrotation Yrotation Xrotation
							End Site
							{
								OFFSET 0.00489 1.93211 -0.16169
							}
						}
					}
				}
				JOINT LeftCollar
				{
					OFFSET 0 0 0
					CHANNELS 3 Zrotation Yrotation Xrotation
					JOINT LeftShoulder
					{
						OFFSET 3.34199 1.32384 -0.07862
CHANNELS 3 Zrotation Xrotation Yrotation
						JOINT LeftElbow
						{
OFFSET 0 -5.279500 0.000000
CHANNELS 3 Zrotation Xrotation Yrotation
							JOINT LeftWrist
							{
OFFSET 0 -3.535040 0.000000
CHANNELS 3 Zrotation Xrotation Yrotation
								JOINT lhand
								{
									OFFSET 0 0 0
CHANNELS 3 Zrotation Xrotation Yrotation
									JOINT LFingers
									{
OFFSET 0 -0.667950 0.000000
CHANNELS 3 Zrotation Xrotation Yrotation
										End Site
										{
OFFSET 0 -0.538520 0.000000
										}
									}
								}
								JOINT LThumb
								{
OFFSET 0 0.000000 0.000000
CHANNELS 3 Zrotation Xrotation Yrotation
									End Site
									{
OFFSET 0 -0.546740 0.546740
									}
								}
							}
						}
					}
				}
				JOINT RightCollar
				{
					OFFSET 0 0 0
					CHANNELS 3 Zrotation Yrotation Xrotation
					JOINT RightShoulder
					{
						OFFSET -3.16149 1.45719 -0.50507
CHANNELS 3 Zrotation Xrotation Yrotation
						JOINT RightElbow
						{
OFFSET 0 -5.250350 0.000000
CHANNELS 3 Zrotation Xrotation Yrotation
							JOINT RightWrist
							{
OFFSET 0 -3.588840 0.000000
CHANNELS 3 Zrotation Xrotation Yrotation
								JOINT rhand
								{
									OFFSET 0 0 0
CHANNELS 3 Zrotation Xrotation Yrotation
									JOINT RFingers
									{
OFFSET 0 -0.779240 0.000000
CHANNELS 3 Zrotation Xrotation Yrotation
										End Site
										{
OFFSET 0 -0.628240 0.000000
										}
									}
								}
								JOINT RThumb
								{
OFFSET 0 0.000000 0.000000
CHANNELS 3 Zrotation Xrotation Yrotation
									End Site
									{
OFFSET 0 -0.637830 0.637830
									}
								}
							}
						}
					}
				}
			}
		}
	}
}
MOTION
Frames: 6
Frame Time: .0083333
-3.0153 17.7989 3.3805 -6.6555 57.5150 0.4402 0.0000 0.0000 0.0000 -15.8201 -10.1009 -15.3974 1.3416 7.3337 20.7077 0.1795 7.6007 -14.0782 1.4481 -7.6070 -21.5267 0.0000 0.0000 0.0000 15.7155 10.3388 -15.0142 -1.2844 -7.1815 20.2543 -0.3111 -2.8835 -11.9989 -0.2741 3.3678 -9.3045 -0.3520 0.1336 5.0686 1.2650 0.2039 -0.6857 1.4854 0.1227 -3.5558 2.1548 0.7331 -24.3855 -6.6616 4.1111 39.9965 -2.6416 1.1981 20.0064 0.0000 -0.0000 0.0000 14.6765 -24.4398 -39.6488 69.9446 -58.4243 42.7234 57.9475 16.2044 -73.7956 0.0 0.0 0.0 -7.1250 0.0 0.0 170.5961 21.2594 -5.4263 0.0000 -0.0000 0.0000 -33.4063 -27.9585 28.4172 -44.4123 -50.4773 -21.7845 -17.8042 -11.381 1.7062 0.0 0.0 0.0 7.1250 0.0 -0.0 7.0308 31.7225 2.2987
-2.9802 17.7986 3.4321 -6.6771 57.7500 0.6486 0.0000 0.0000 0.0000 -15.6987 -10.6894 -15.4178 1.3812 7.4367 21.0158 0.1862 7.9215 -14.5354 1.4803 -7.6873 -21.7683 0.0000 0.0000 0.0000 15.4260 11.4825 -14.7377 -0.9809 -6.3045 17.6706 -0.2501 -3.4323 -11.3507 -0.2354 3.1223 -8.6195 -0.3008 0.0668 5.0115 1.3067 0.1195 -0.6756 1.5063 0.0800 -3.5107 1.8660 0.8500 -24.5468 -6.6159 4.4955 40.4014 -2.4948 1.3105 20.3447 0.0000 -0.0000 0.0000 14.6466 -24.4857 -39.6921 69.1763 -58.2964 42.0693 58.3729 17.0308 -72.9028 0.0 0.0 0.0 -7.1250 0.0 0.0 171.2103 20.8636 -5.1428 0.0000 -0.0000 0.0000 -33.4016 -28.1104 28.5054 -43.9646 -50.251 -21.4397 -17.802 -11.0686 1.6343 0.0 0.0 0.0 7.1250 0.0 -0.0 7.0263 31.6475 2.31
-2.9496 17.7958 3.4905 -6.6374 58.0364 0.8983 0.0000 0.0000 0.0000 -15.6008 -11.0714 -15.4969 1.4145 7.5221 21.2716 0.2031 8.0089 -14.8813 1.5223 -7.7907 -22.0802 0.0000 0.0000 0.0000 15.1660 12.5561 -14.3833 -0.7278 -5.4509 15.1992 -0.1564 -4.2471 -10.2517 -0.4310 4.2133 -11.6775 -0.2529 0.0165 4.9602 1.3061 0.0552 -0.6735 1.4838 0.0469 -3.4777 1.6584 0.9145 -24.6703 -6.5859 4.7559 40.7372 -2.3952 1.3843 20.6229 -0.0000 -0.0000 0.0000 14.6236 -24.3591 -40.1643 69.5434 -58.3582 42.3817 61.3943 19.5298 -73.0064 0.0 0.0 0.0 -7.1250 0.0 0.0 171.4306 21.6898 -4.8489 -0.0000 -0.0000 0.0000 -33.2981 -28.1227 28.4442 -43.7035 -50.1173 -21.2391 -17.6769 -10.7849 1.6371 0.0 0.0 0.0 7.1250 0.0 -0.0 7.1263 31.6478 2.3433
-2.9182 17.7899 3.5561 -6.4964 58.3048 1.2138 0.0000 0.0000 0.0000 -15.5591 -11.3541 -15.5381 1.4409 7.5888 21.4719 0.2252 7.9716 -15.1582 1.5526 -7.8644 -22.3030 0.0000 0.0000 0.0000 14.9278 13.5206 -14.0208 -0.5379 -4.6991 13.0523 -0.0484 -4.9836 -8.5365 -0.9115 6.0835 -17.0270 -0.2252 0.0242 4.8492 1.2745 0.0652 -0.6588 1.4345 0.0506 -3.4002 1.5249 0.8656 -24.6846 -6.7107 4.8505 40.9277 -2.4209 1.3857 20.7708 -0.0000 -0.0000 0.0000 14.6115 -24.3958 -40.5507 69.2600 -58.3106 42.1405 65.0954 24.0199 -71.0357 0.0 0.0 0.0 -7.1250 0.0 0.0 173.0858 21.7681 -3.8847 -0.0000 -0.0000 0.0000 -33.1315 -27.9641 28.1397 -43.6606 -50.0952 -21.2062 -17.5789 -10.4585 1.6023 0.0 0.0 0.0 7.1250 0.0 -0.0 7.2012 31.6095 2.3749
-2.8908 17.7826 3.6335 -6.0588 58.6001 1.8087 0.0000 0.0000 0.0000 -15.6589 -11.5040 -15.6253 1.4578 7.6312 21.5994 0.2474 7.7744 -15.2624 1.6442 -8.0819 -22.9632 0.0000 0.0000 0.0000 14.5486 14.6763 -13.6496 -0.4155 -4.1378 11.4647 0.0442 -5.4325 -6.1881 -1.2180 7.0004 -19.7166 -0.4318 0.0356 4.6295 1.2187 0.0649 -0.6465 1.4926 0.0529 -3.2639 1.3480 0.7796 -24.6161 -6.8487 4.9107 41.0796 -2.4517 1.3668 20.8661 -0.0000 0.0000 0.0000 14.6054 -24.4898 -40.8898 68.8111 -58.2337 41.7587 66.4962 26.525 -71.1427 0.0 0.0 0.0 -7.1250 0.0 0.0 173.1340 22.2416 -3.7828 -0.0000 0.0000 0.0000 -32.8874 -27.7109 27.8181 -43.7595 -50.1461 -21.2821 -17.6826 -10.1966 1.6898 0.0 0.0 0.0 7.1250 0.0 -0.0 7.1263 31.7027 2.3338
-2.8717 17.7749 3.7221 -5.3069 58.9832 2.7251 0.0000 0.0000 0.0000 -15.8974 -11.4334 -15.8570 1.4649 7.6490 21.6529 0.2792 7.2155 -15.1359 1.6562 -8.1099 -23.0485 0.0000 0.0000 0.0000 14.0808 15.7444 -13.4388 -0.3596 -3.8524 10.6618 0.0877 -5.5540 -3.9705 -1.1625 6.8448 -19.2565 -0.8776 0.0139 4.3513 1.1181 0.0073 -0.6639 1.6430 0.0301 -3.1238 1.2005 0.6846 -24.5756 -6.9319 4.9130 41.2380 -2.4746 1.3374 20.9669 -0.0000 0.0000 0.0000 14.5915 -24.4154 -41.1627 68.7095 -58.216 41.6724 67.3807 28.0745 -71.6119 0.0 0.0 0.0 -7.1250 0.0 0.0 172.8812 22.7098 -3.8475 -0.0000 0.0000 0.0000 -32.5066 -27.4288 27.5719 -43.8690 -50.2022 -21.3662 -17.777 -10.2312 2.0375 0.0 0.0 0.0 7.1250 0.0 -0.0 7.0819 32.0671 2.2565
